<svg xmlns="http://www.w3.org/2000/svg" width="40" height="40" viewBox="0 0 40 40" fill="none">
<g clip-path="url(#clip0_13_9013)">
<path d="M40 0H0V40H40V0Z" fill="#CD3D00"/>
<path d="M22.5875 27.5H11.1375C10.1716 27.4967 9.24644 27.1107 8.56464 26.4265C7.88283 25.7424 7.49999 24.8159 7.5 23.85V16.15C7.5 15.182 7.88455 14.2536 8.56906 13.5691C9.25357 12.8846 10.182 12.5 11.15 12.5H22.6C23.0793 12.5 23.554 12.5944 23.9968 12.7778C24.4396 12.9613 24.842 13.2301 25.1809 13.5691C25.5199 13.908 25.7887 14.3104 25.9722 14.7532C26.1556 15.196 26.25 15.6707 26.25 16.15V23.85C26.2434 24.8182 25.855 25.7446 25.1693 26.4281C24.4835 27.1115 23.5557 27.4967 22.5875 27.5V27.5Z" fill="white"/>
<path d="M20 20.0003L30.6875 25.3503C30.8787 25.4467 31.0915 25.4923 31.3055 25.4828C31.5194 25.4733 31.7273 25.409 31.9092 25.2961C32.0912 25.1832 32.2411 25.0254 32.3445 24.8379C32.448 24.6504 32.5015 24.4395 32.5 24.2253V15.7753C32.5015 15.5612 32.448 15.3503 32.3445 15.1628C32.2411 14.9753 32.0912 14.8175 31.9092 14.7046C31.7273 14.5916 31.5194 14.5273 31.3055 14.5178C31.0915 14.5083 30.8787 14.554 30.6875 14.6503L20 20.0003Z" fill="white"/>
</g>
<defs>
<clipPath id="clip0_13_9013">
<rect width="40" height="40" rx="20" fill="white"/>
</clipPath>
</defs>
</svg>