<svg width="40" height="40" viewBox="0 0 40 40" fill="none" xmlns="http://www.w3.org/2000/svg">
<g clip-path="url(#clip0_13_8967)">
<rect width="40" height="40" fill="#03753C"/>
<path d="M26.2497 12.5003H14.0622C12.0731 12.4713 10.1497 13.2121 8.69386 14.5677C7.23802 15.9234 6.36231 17.7892 6.24967 19.7753C6.20676 21.2139 6.57867 22.6345 7.32101 23.8675C8.06336 25.1004 9.14479 26.0938 10.4363 26.729C11.7277 27.3642 13.1747 27.6144 14.6045 27.4497C16.0342 27.285 17.3864 26.7125 18.4997 25.8003C18.9322 25.4534 19.4702 25.2644 20.0247 25.2644C20.5792 25.2644 21.1171 25.4534 21.5497 25.8003C22.3334 26.4497 23.2442 26.928 24.2237 27.2045C25.2032 27.4811 26.2296 27.5497 27.2372 27.4061C28.2448 27.2625 29.2112 26.9098 30.0744 26.3707C30.9377 25.8315 31.6786 25.1178 32.2497 24.2753C33.0228 23.1616 33.4795 21.8591 33.5713 20.5064C33.6631 19.1538 33.3865 17.8015 32.771 16.5935C32.1555 15.3855 31.224 14.367 30.0757 13.6462C28.9274 12.9255 27.6051 12.5295 26.2497 12.5003V12.5003ZM16.7497 20.5003C16.6709 20.6798 16.551 20.8382 16.3997 20.9628L13.2997 23.4628C13.0748 23.6492 12.7917 23.7509 12.4997 23.7503C12.313 23.7534 12.1284 23.7105 11.9622 23.6253C11.7467 23.5243 11.5646 23.3638 11.4372 23.1628C11.3077 22.9667 11.2422 22.7352 11.2497 22.5003V17.5003C11.2503 17.2608 11.3197 17.0265 11.4497 16.8253C11.5771 16.6243 11.7592 16.4639 11.9747 16.3628C12.1759 16.2634 12.4017 16.2243 12.6247 16.2503C12.8457 16.2763 13.0564 16.358 13.2372 16.4878L16.3997 18.9878C16.5479 19.1053 16.6676 19.2549 16.7497 19.4253C16.8296 19.5932 16.8711 19.7769 16.8711 19.9628C16.8711 20.1488 16.8296 20.3324 16.7497 20.5003V20.5003ZM26.8747 16.2503C27.124 16.2498 27.3678 16.3238 27.5747 16.4628C27.7799 16.5986 27.9373 16.7953 28.0247 17.0253C28.1211 17.2542 28.1472 17.5066 28.0997 17.7503C28.0507 17.9906 27.9321 18.2111 27.7588 18.3844C27.5854 18.5578 27.3649 18.6763 27.1247 18.7253C26.8809 18.7729 26.6285 18.7468 26.3997 18.6503C26.1697 18.5629 25.9729 18.4055 25.8372 18.2003C25.71 18.0122 25.6365 17.793 25.6245 17.5662C25.6126 17.3394 25.6626 17.1137 25.7693 16.9132C25.8759 16.7127 26.0352 16.5451 26.2299 16.4283C26.4247 16.3115 26.6476 16.25 26.8747 16.2503V16.2503ZM24.3747 21.2503C24.1254 21.2509 23.8816 21.1769 23.6747 21.0378C23.4695 20.9021 23.3121 20.7053 23.2247 20.4753C23.1282 20.2465 23.1021 19.9941 23.1497 19.7503C23.1942 19.5055 23.3108 19.2796 23.4845 19.1015C23.6582 18.9233 23.8811 18.8011 24.1247 18.7503C24.3684 18.7028 24.6208 18.7289 24.8497 18.8253C25.0797 18.9127 25.2764 19.0701 25.4122 19.2753C25.5463 19.4636 25.6255 19.6854 25.6412 19.9161C25.6568 20.1467 25.6081 20.3771 25.5006 20.5818C25.3931 20.7864 25.231 20.9573 25.0322 21.0753C24.8334 21.1933 24.6058 21.2539 24.3747 21.2503ZM26.8747 23.7503C26.6254 23.7509 26.3816 23.6769 26.1747 23.5378C25.9695 23.4021 25.8121 23.2053 25.7247 22.9753C25.6282 22.7465 25.6021 22.4941 25.6497 22.2503C25.6942 22.0055 25.8108 21.7796 25.9845 21.6015C26.1582 21.4233 26.3811 21.3011 26.6247 21.2503C26.8684 21.2028 27.1208 21.2289 27.3497 21.3253C27.5797 21.4127 27.7764 21.5701 27.9122 21.7753C28.0463 21.9636 28.1255 22.1854 28.1412 22.4161C28.1568 22.6467 28.1081 22.8772 28.0006 23.0818C27.8931 23.2864 27.731 23.4573 27.5322 23.5753C27.3334 23.6933 27.1058 23.7539 26.8747 23.7503V23.7503ZM29.3747 21.2503C29.1254 21.2509 28.8816 21.1769 28.6747 21.0378C28.4695 20.9021 28.3121 20.7053 28.2247 20.4753C28.1282 20.2465 28.1021 19.9941 28.1497 19.7503C28.1942 19.5055 28.3108 19.2796 28.4845 19.1015C28.6582 18.9233 28.8811 18.8011 29.1247 18.7503C29.3684 18.7028 29.6208 18.7289 29.8497 18.8253C30.0797 18.9127 30.2764 19.0701 30.4122 19.2753C30.5463 19.4636 30.6255 19.6854 30.6412 19.9161C30.6568 20.1467 30.6081 20.3771 30.5006 20.5818C30.3931 20.7864 30.231 20.9573 30.0322 21.0753C29.8334 21.1933 29.6058 21.2539 29.3747 21.2503Z" fill="white"/>
</g>
<defs>
<clipPath id="clip0_13_8967">
<rect width="40" height="40" rx="20" fill="white"/>
</clipPath>
</defs>
</svg>
